<?xml version="1.0" encoding="UTF-8" standalone="no"?>
<!DOCTYPE svg PUBLIC "-//W3C//DTD SVG 1.1//EN"
 "http://www.w3.org/Graphics/SVG/1.1/DTD/svg11.dtd">
<!-- Generated by graphviz version 2.38.0 (20140413.2041)
 -->
<!-- Title: G Pages: 1 -->
<svg width="300pt" height="387pt"
 viewBox="0.00 0.00 300.00 387.00" xmlns="http://www.w3.org/2000/svg" xmlns:xlink="http://www.w3.org/1999/xlink">
<g id="graph0" class="graph" transform="scale(1 1) rotate(0) translate(4 383)">
<title>G</title>
<polygon fill="white" stroke="none" points="-4,4 -4,-383 296,-383 296,4 -4,4"/>
<!-- 2418772363192 -->
<g id="node1" class="node"><title>2418772363192</title>
<polygon fill="none" stroke="black" points="0,-332.5 0,-378.5 292,-378.5 292,-332.5 0,-332.5"/>
<text text-anchor="middle" x="83" y="-351.8" font-family="Times New Roman,serif" font-size="14.00">dense_1_input: InputLayer</text>
<polyline fill="none" stroke="black" points="166,-332.5 166,-378.5 "/>
<text text-anchor="middle" x="194" y="-363.3" font-family="Times New Roman,serif" font-size="14.00">input:</text>
<polyline fill="none" stroke="black" points="166,-355.5 222,-355.5 "/>
<text text-anchor="middle" x="194" y="-340.3" font-family="Times New Roman,serif" font-size="14.00">output:</text>
<polyline fill="none" stroke="black" points="222,-332.5 222,-378.5 "/>
<text text-anchor="middle" x="257" y="-363.3" font-family="Times New Roman,serif" font-size="14.00">(None, 2)</text>
<polyline fill="none" stroke="black" points="222,-355.5 292,-355.5 "/>
<text text-anchor="middle" x="257" y="-340.3" font-family="Times New Roman,serif" font-size="14.00">(None, 2)</text>
</g>
<!-- 2418806358592 -->
<g id="node2" class="node"><title>2418806358592</title>
<polygon fill="none" stroke="black" points="27.5,-249.5 27.5,-295.5 264.5,-295.5 264.5,-249.5 27.5,-249.5"/>
<text text-anchor="middle" x="79.5" y="-268.8" font-family="Times New Roman,serif" font-size="14.00">dense_1: Dense</text>
<polyline fill="none" stroke="black" points="131.5,-249.5 131.5,-295.5 "/>
<text text-anchor="middle" x="159.5" y="-280.3" font-family="Times New Roman,serif" font-size="14.00">input:</text>
<polyline fill="none" stroke="black" points="131.5,-272.5 187.5,-272.5 "/>
<text text-anchor="middle" x="159.5" y="-257.3" font-family="Times New Roman,serif" font-size="14.00">output:</text>
<polyline fill="none" stroke="black" points="187.5,-249.5 187.5,-295.5 "/>
<text text-anchor="middle" x="226" y="-280.3" font-family="Times New Roman,serif" font-size="14.00">(None, 2)</text>
<polyline fill="none" stroke="black" points="187.5,-272.5 264.5,-272.5 "/>
<text text-anchor="middle" x="226" y="-257.3" font-family="Times New Roman,serif" font-size="14.00">(None, 20)</text>
</g>
<!-- 2418772363192&#45;&gt;2418806358592 -->
<g id="edge1" class="edge"><title>2418772363192&#45;&gt;2418806358592</title>
<path fill="none" stroke="black" d="M146,-332.366C146,-324.152 146,-314.658 146,-305.725"/>
<polygon fill="black" stroke="black" points="149.5,-305.607 146,-295.607 142.5,-305.607 149.5,-305.607"/>
</g>
<!-- 2418772241152 -->
<g id="node3" class="node"><title>2418772241152</title>
<polygon fill="none" stroke="black" points="27.5,-166.5 27.5,-212.5 264.5,-212.5 264.5,-166.5 27.5,-166.5"/>
<text text-anchor="middle" x="79.5" y="-185.8" font-family="Times New Roman,serif" font-size="14.00">dense_2: Dense</text>
<polyline fill="none" stroke="black" points="131.5,-166.5 131.5,-212.5 "/>
<text text-anchor="middle" x="159.5" y="-197.3" font-family="Times New Roman,serif" font-size="14.00">input:</text>
<polyline fill="none" stroke="black" points="131.5,-189.5 187.5,-189.5 "/>
<text text-anchor="middle" x="159.5" y="-174.3" font-family="Times New Roman,serif" font-size="14.00">output:</text>
<polyline fill="none" stroke="black" points="187.5,-166.5 187.5,-212.5 "/>
<text text-anchor="middle" x="226" y="-197.3" font-family="Times New Roman,serif" font-size="14.00">(None, 20)</text>
<polyline fill="none" stroke="black" points="187.5,-189.5 264.5,-189.5 "/>
<text text-anchor="middle" x="226" y="-174.3" font-family="Times New Roman,serif" font-size="14.00">(None, 40)</text>
</g>
<!-- 2418806358592&#45;&gt;2418772241152 -->
<g id="edge2" class="edge"><title>2418806358592&#45;&gt;2418772241152</title>
<path fill="none" stroke="black" d="M146,-249.366C146,-241.152 146,-231.658 146,-222.725"/>
<polygon fill="black" stroke="black" points="149.5,-222.607 146,-212.607 142.5,-222.607 149.5,-222.607"/>
</g>
<!-- 2418806361672 -->
<g id="node4" class="node"><title>2418806361672</title>
<polygon fill="none" stroke="black" points="27.5,-83.5 27.5,-129.5 264.5,-129.5 264.5,-83.5 27.5,-83.5"/>
<text text-anchor="middle" x="79.5" y="-102.8" font-family="Times New Roman,serif" font-size="14.00">dense_3: Dense</text>
<polyline fill="none" stroke="black" points="131.5,-83.5 131.5,-129.5 "/>
<text text-anchor="middle" x="159.5" y="-114.3" font-family="Times New Roman,serif" font-size="14.00">input:</text>
<polyline fill="none" stroke="black" points="131.5,-106.5 187.5,-106.5 "/>
<text text-anchor="middle" x="159.5" y="-91.3" font-family="Times New Roman,serif" font-size="14.00">output:</text>
<polyline fill="none" stroke="black" points="187.5,-83.5 187.5,-129.5 "/>
<text text-anchor="middle" x="226" y="-114.3" font-family="Times New Roman,serif" font-size="14.00">(None, 40)</text>
<polyline fill="none" stroke="black" points="187.5,-106.5 264.5,-106.5 "/>
<text text-anchor="middle" x="226" y="-91.3" font-family="Times New Roman,serif" font-size="14.00">(None, 40)</text>
</g>
<!-- 2418772241152&#45;&gt;2418806361672 -->
<g id="edge3" class="edge"><title>2418772241152&#45;&gt;2418806361672</title>
<path fill="none" stroke="black" d="M146,-166.366C146,-158.152 146,-148.658 146,-139.725"/>
<polygon fill="black" stroke="black" points="149.5,-139.607 146,-129.607 142.5,-139.607 149.5,-139.607"/>
</g>
<!-- 2418806633696 -->
<g id="node5" class="node"><title>2418806633696</title>
<polygon fill="none" stroke="black" points="27.5,-0.5 27.5,-46.5 264.5,-46.5 264.5,-0.5 27.5,-0.5"/>
<text text-anchor="middle" x="79.5" y="-19.8" font-family="Times New Roman,serif" font-size="14.00">dense_4: Dense</text>
<polyline fill="none" stroke="black" points="131.5,-0.5 131.5,-46.5 "/>
<text text-anchor="middle" x="159.5" y="-31.3" font-family="Times New Roman,serif" font-size="14.00">input:</text>
<polyline fill="none" stroke="black" points="131.5,-23.5 187.5,-23.5 "/>
<text text-anchor="middle" x="159.5" y="-8.3" font-family="Times New Roman,serif" font-size="14.00">output:</text>
<polyline fill="none" stroke="black" points="187.5,-0.5 187.5,-46.5 "/>
<text text-anchor="middle" x="226" y="-31.3" font-family="Times New Roman,serif" font-size="14.00">(None, 40)</text>
<polyline fill="none" stroke="black" points="187.5,-23.5 264.5,-23.5 "/>
<text text-anchor="middle" x="226" y="-8.3" font-family="Times New Roman,serif" font-size="14.00">(None, 1)</text>
</g>
<!-- 2418806361672&#45;&gt;2418806633696 -->
<g id="edge4" class="edge"><title>2418806361672&#45;&gt;2418806633696</title>
<path fill="none" stroke="black" d="M146,-83.3664C146,-75.1516 146,-65.6579 146,-56.7252"/>
<polygon fill="black" stroke="black" points="149.5,-56.6068 146,-46.6068 142.5,-56.6069 149.5,-56.6068"/>
</g>
</g>
</svg>
