<?xml version="1.0" encoding="UTF-8" standalone="no"?>
<!DOCTYPE svg PUBLIC "-//W3C//DTD SVG 1.1//EN"
 "http://www.w3.org/Graphics/SVG/1.1/DTD/svg11.dtd">
<!-- Generated by graphviz version 2.38.0 (20140413.2041)
 -->
<!-- Title: G Pages: 1 -->
<svg width="319pt" height="304pt"
 viewBox="0.00 0.00 319.00 304.00" xmlns="http://www.w3.org/2000/svg" xmlns:xlink="http://www.w3.org/1999/xlink">
<g id="graph0" class="graph" transform="scale(1 1) rotate(0) translate(4 300)">
<title>G</title>
<polygon fill="white" stroke="none" points="-4,4 -4,-300 315,-300 315,4 -4,4"/>
<!-- 2106943666104 -->
<g id="node1" class="node"><title>2106943666104</title>
<polygon fill="none" stroke="black" points="0,-249.5 0,-295.5 311,-295.5 311,-249.5 0,-249.5"/>
<text text-anchor="middle" x="78.5" y="-268.8" font-family="Times New Roman,serif" font-size="14.00">lstm_1_input: InputLayer</text>
<polyline fill="none" stroke="black" points="157,-249.5 157,-295.5 "/>
<text text-anchor="middle" x="185" y="-280.3" font-family="Times New Roman,serif" font-size="14.00">input:</text>
<polyline fill="none" stroke="black" points="157,-272.5 213,-272.5 "/>
<text text-anchor="middle" x="185" y="-257.3" font-family="Times New Roman,serif" font-size="14.00">output:</text>
<polyline fill="none" stroke="black" points="213,-249.5 213,-295.5 "/>
<text text-anchor="middle" x="262" y="-280.3" font-family="Times New Roman,serif" font-size="14.00">(None, 60, 95)</text>
<polyline fill="none" stroke="black" points="213,-272.5 311,-272.5 "/>
<text text-anchor="middle" x="262" y="-257.3" font-family="Times New Roman,serif" font-size="14.00">(None, 60, 95)</text>
</g>
<!-- 2106943740784 -->
<g id="node2" class="node"><title>2106943740784</title>
<polygon fill="none" stroke="black" points="23,-166.5 23,-212.5 288,-212.5 288,-166.5 23,-166.5"/>
<text text-anchor="middle" x="72" y="-185.8" font-family="Times New Roman,serif" font-size="14.00">lstm_1: LSTM</text>
<polyline fill="none" stroke="black" points="121,-166.5 121,-212.5 "/>
<text text-anchor="middle" x="149" y="-197.3" font-family="Times New Roman,serif" font-size="14.00">input:</text>
<polyline fill="none" stroke="black" points="121,-189.5 177,-189.5 "/>
<text text-anchor="middle" x="149" y="-174.3" font-family="Times New Roman,serif" font-size="14.00">output:</text>
<polyline fill="none" stroke="black" points="177,-166.5 177,-212.5 "/>
<text text-anchor="middle" x="232.5" y="-197.3" font-family="Times New Roman,serif" font-size="14.00">(None, 60, 95)</text>
<polyline fill="none" stroke="black" points="177,-189.5 288,-189.5 "/>
<text text-anchor="middle" x="232.5" y="-174.3" font-family="Times New Roman,serif" font-size="14.00">(None, 60, 1024)</text>
</g>
<!-- 2106943666104&#45;&gt;2106943740784 -->
<g id="edge1" class="edge"><title>2106943666104&#45;&gt;2106943740784</title>
<path fill="none" stroke="black" d="M155.5,-249.366C155.5,-241.152 155.5,-231.658 155.5,-222.725"/>
<polygon fill="black" stroke="black" points="159,-222.607 155.5,-212.607 152,-222.607 159,-222.607"/>
</g>
<!-- 2106935118704 -->
<g id="node3" class="node"><title>2106935118704</title>
<polygon fill="none" stroke="black" points="23,-83.5 23,-129.5 288,-129.5 288,-83.5 23,-83.5"/>
<text text-anchor="middle" x="72" y="-102.8" font-family="Times New Roman,serif" font-size="14.00">lstm_2: LSTM</text>
<polyline fill="none" stroke="black" points="121,-83.5 121,-129.5 "/>
<text text-anchor="middle" x="149" y="-114.3" font-family="Times New Roman,serif" font-size="14.00">input:</text>
<polyline fill="none" stroke="black" points="121,-106.5 177,-106.5 "/>
<text text-anchor="middle" x="149" y="-91.3" font-family="Times New Roman,serif" font-size="14.00">output:</text>
<polyline fill="none" stroke="black" points="177,-83.5 177,-129.5 "/>
<text text-anchor="middle" x="232.5" y="-114.3" font-family="Times New Roman,serif" font-size="14.00">(None, 60, 1024)</text>
<polyline fill="none" stroke="black" points="177,-106.5 288,-106.5 "/>
<text text-anchor="middle" x="232.5" y="-91.3" font-family="Times New Roman,serif" font-size="14.00">(None, 1024)</text>
</g>
<!-- 2106943740784&#45;&gt;2106935118704 -->
<g id="edge2" class="edge"><title>2106943740784&#45;&gt;2106935118704</title>
<path fill="none" stroke="black" d="M155.5,-166.366C155.5,-158.152 155.5,-148.658 155.5,-139.725"/>
<polygon fill="black" stroke="black" points="159,-139.607 155.5,-129.607 152,-139.607 159,-139.607"/>
</g>
<!-- 2106943665992 -->
<g id="node4" class="node"><title>2106943665992</title>
<polygon fill="none" stroke="black" points="30.5,-0.5 30.5,-46.5 280.5,-46.5 280.5,-0.5 30.5,-0.5"/>
<text text-anchor="middle" x="82.5" y="-19.8" font-family="Times New Roman,serif" font-size="14.00">dense_1: Dense</text>
<polyline fill="none" stroke="black" points="134.5,-0.5 134.5,-46.5 "/>
<text text-anchor="middle" x="162.5" y="-31.3" font-family="Times New Roman,serif" font-size="14.00">input:</text>
<polyline fill="none" stroke="black" points="134.5,-23.5 190.5,-23.5 "/>
<text text-anchor="middle" x="162.5" y="-8.3" font-family="Times New Roman,serif" font-size="14.00">output:</text>
<polyline fill="none" stroke="black" points="190.5,-0.5 190.5,-46.5 "/>
<text text-anchor="middle" x="235.5" y="-31.3" font-family="Times New Roman,serif" font-size="14.00">(None, 1024)</text>
<polyline fill="none" stroke="black" points="190.5,-23.5 280.5,-23.5 "/>
<text text-anchor="middle" x="235.5" y="-8.3" font-family="Times New Roman,serif" font-size="14.00">(None, 95)</text>
</g>
<!-- 2106935118704&#45;&gt;2106943665992 -->
<g id="edge3" class="edge"><title>2106935118704&#45;&gt;2106943665992</title>
<path fill="none" stroke="black" d="M155.5,-83.3664C155.5,-75.1516 155.5,-65.6579 155.5,-56.7252"/>
<polygon fill="black" stroke="black" points="159,-56.6068 155.5,-46.6068 152,-56.6069 159,-56.6068"/>
</g>
</g>
</svg>
